<svg width="317" height="360" viewBox="0 0 317 360" fill="none" xmlns="http://www.w3.org/2000/svg">
<ellipse cx="47.5" cy="127" rx="47.5" ry="48" fill="#131A24"/>
<rect x="72" y="115" width="140" height="245" rx="10" fill="#131A24"/>
<ellipse cx="170.5" cy="147" rx="146.5" ry="147" fill="#131A24"/>
<path d="M47.4494 79.0305C67.6294 79.5605 85.2394 91.5105 92.1994 110.67C92.2405 110.784 92.3163 110.883 92.4164 110.953C92.5166 111.022 92.6363 111.06 92.7594 111.06C96.9794 111.067 131.063 111.064 195.009 111.05C200.289 111.04 204.499 110.46 207.259 114.06C207.602 114.507 208.089 114.824 208.639 114.961L210.589 115.45C211.309 115.631 211.948 116.047 212.405 116.632C212.861 117.217 213.109 117.938 213.109 118.681V279.221C213.11 279.307 213.131 279.392 213.17 279.469C213.21 279.546 213.267 279.613 213.337 279.663C213.407 279.714 213.489 279.747 213.574 279.761C213.66 279.774 213.747 279.767 213.829 279.741C280.479 257.181 320.269 188.601 306.369 119.55C297.229 74.1305 266.519 36.4305 223.809 18.2105C158.069 -9.83949 82.4594 16.4105 47.0994 78.4005C47.063 78.4634 47.0436 78.5345 47.043 78.6071C47.0424 78.6797 47.0606 78.7512 47.0958 78.8147C47.1311 78.8781 47.1822 78.9314 47.2441 78.9692C47.3061 79.007 47.3768 79.0281 47.4494 79.0305Z" stroke="#C0ECEF"/>
<path d="M81.2183 177.161L79.3083 158.151C79.2766 157.838 79.3081 157.522 79.4008 157.221C79.4936 156.921 79.6458 156.642 79.8483 156.401C88.115 146.681 91.825 135.888 90.9783 124.021C88.3283 86.7009 43.3483 69.6009 16.6083 95.3309C-5.16168 116.281 0.288324 152.341 27.1483 166.091C37.3683 171.324 48.475 172.258 60.4683 168.891C61.2948 168.659 62.1748 168.73 62.9483 169.091L80.7483 177.491C80.8011 177.516 80.8595 177.527 80.9177 177.522C80.9759 177.517 81.0317 177.496 81.0795 177.463C81.1273 177.429 81.1653 177.384 81.1897 177.331C81.2141 177.278 81.224 177.219 81.2183 177.161Z" stroke="#C0ECEF"/>
<path d="M75.1094 179.99V314.49C75.1094 314.644 75.1694 314.792 75.2763 314.901C75.3832 315.009 75.5282 315.07 75.6794 315.07H204.529C204.694 315.07 204.852 315.005 204.968 314.889C205.084 314.773 205.149 314.615 205.149 314.45C205.136 255.937 205.133 191.804 205.139 122.05C205.139 118.82 205.299 115.13 201.119 115.08C191.833 114.974 180.613 114.967 167.459 115.06C167.406 115.06 167.353 115.071 167.304 115.092C167.255 115.113 167.21 115.143 167.173 115.181C167.136 115.219 167.106 115.265 167.087 115.314C167.067 115.364 167.058 115.417 167.059 115.47C167.139 121.004 167.139 125.114 167.059 127.8C166.979 130.707 165.906 132.81 163.839 134.11C162.713 134.817 160.349 135.14 156.749 135.08C154.029 135.027 142.683 135 122.709 135C117.809 135 115.313 132.594 115.219 127.78C115.099 122.04 115.066 117.937 115.119 115.47C115.121 115.414 115.111 115.359 115.09 115.307C115.07 115.255 115.039 115.207 115 115.167C114.961 115.127 114.914 115.095 114.862 115.073C114.811 115.052 114.755 115.04 114.699 115.04H94.0594C94.0103 115.041 93.9619 115.052 93.9178 115.074C93.8737 115.095 93.8348 115.126 93.8042 115.164C93.7735 115.203 93.7518 115.247 93.7406 115.295C93.7294 115.343 93.729 115.393 93.7394 115.44C97.206 131.36 93.8827 145.54 83.7694 157.98C83.5503 158.251 83.4398 158.593 83.4594 158.94C83.866 164.6 84.5827 171.64 85.6094 180.06C85.9294 182.69 84.3094 183.63 82.1694 182.59C79.956 181.51 77.8427 180.494 75.8294 179.54C75.7531 179.503 75.6685 179.486 75.5836 179.49C75.4988 179.494 75.4164 179.52 75.3444 179.565C75.2723 179.61 75.2129 179.673 75.1718 179.748C75.1307 179.822 75.1092 179.905 75.1094 179.99Z" stroke="#C0ECEF"/>
<path d="M162.552 115.03H119.712C119.55 115.03 119.395 115.095 119.28 115.209C119.166 115.323 119.102 115.478 119.102 115.64V127.74C119.102 128.623 119.444 129.47 120.053 130.095C120.663 130.719 121.49 131.07 122.352 131.07H159.912C160.774 131.07 161.6 130.719 162.21 130.095C162.819 129.47 163.162 128.623 163.162 127.74V115.64C163.162 115.478 163.097 115.323 162.983 115.209C162.869 115.095 162.713 115.03 162.552 115.03Z" stroke="#C0ECEF"/>
<path d="M71.1515 246.491V177.971C71.1511 177.791 71.0992 177.615 71.0018 177.463C70.9045 177.31 70.7656 177.188 70.6015 177.111L62.3015 173.191C61.6822 172.901 60.9758 172.844 60.3114 173.031C50.7581 175.704 41.2815 175.504 31.8815 172.431C31.8305 172.415 31.7762 172.412 31.7238 172.422C31.6714 172.433 31.6227 172.457 31.5824 172.493C31.5422 172.528 31.5117 172.573 31.494 172.624C31.4763 172.674 31.472 172.728 31.4815 172.781C37.0415 201.381 50.1281 226.008 70.7415 246.661C70.775 246.695 70.8178 246.718 70.8645 246.727C70.9111 246.736 70.9594 246.731 71.0034 246.713C71.0473 246.695 71.0848 246.664 71.1112 246.625C71.1376 246.585 71.1516 246.538 71.1515 246.491Z" stroke="#C0ECEF"/>
<path d="M204.619 319.03H75.6191C75.4652 319.03 75.3177 319.091 75.2089 319.2C75.1002 319.309 75.0391 319.456 75.0391 319.61V349.77C75.0391 351.187 75.6227 352.545 76.6617 353.546C77.7006 354.548 79.1098 355.11 80.5791 355.11H199.659C200.387 355.11 201.107 354.972 201.779 354.704C202.451 354.435 203.062 354.042 203.576 353.546C204.091 353.05 204.499 352.462 204.777 351.814C205.056 351.166 205.199 350.472 205.199 349.77V319.61C205.199 319.456 205.138 319.309 205.029 319.2C204.92 319.091 204.773 319.03 204.619 319.03Z" stroke="#C0ECEF"/>
<path d="M39.9501 128.95C38.7435 128.07 35.4568 125.254 30.0901 120.5C22.6601 113.94 13.1501 124.4 21.3501 131.47C25.8235 135.324 30.3101 139.2 34.8101 143.1C37.7301 145.64 39.3401 146.48 42.8001 145.91C43.9068 145.724 45.6368 144.407 47.9901 141.96C62.8435 126.474 71.1835 117.807 73.0101 115.96C75.2701 113.66 76.7101 111.43 76.0401 108.38C75.5601 106.18 74.2801 104.557 72.2001 103.51C68.2701 101.53 65.3401 103.62 62.3401 106.76C53.3335 116.227 46.2635 123.594 41.1301 128.86C40.9765 129.014 40.7731 129.107 40.5568 129.123C40.3404 129.14 40.1253 129.079 39.9501 128.95Z" stroke="#C0ECEF"/>
<path d="M125.08 233.6C125.434 233.6 125.787 234.007 126.14 234.82C127.38 237.727 128.18 239.617 128.54 240.49C128.588 240.601 128.659 240.701 128.749 240.78C128.84 240.86 128.946 240.919 129.062 240.952C129.177 240.984 129.298 240.99 129.416 240.969C129.533 240.948 129.644 240.901 129.74 240.83L138.68 234.34C138.764 234.28 138.834 234.203 138.885 234.113C138.936 234.023 138.967 233.924 138.976 233.821C138.984 233.718 138.97 233.615 138.935 233.518C138.9 233.421 138.843 233.333 138.77 233.26L133.71 228.2C133.609 228.097 133.54 227.967 133.512 227.825C133.484 227.683 133.498 227.536 133.553 227.404C133.607 227.271 133.7 227.158 133.819 227.079C133.938 227 134.078 226.958 134.22 226.96H140.11C140.259 226.961 140.406 226.927 140.54 226.861C140.674 226.795 140.791 226.699 140.882 226.58C140.973 226.461 141.035 226.323 141.064 226.175C141.094 226.028 141.089 225.876 141.05 225.73L138.28 215.17C138.246 215.039 138.182 214.918 138.094 214.816C138.005 214.714 137.894 214.633 137.769 214.581C137.644 214.529 137.509 214.506 137.374 214.515C137.239 214.523 137.108 214.563 136.99 214.63L131.21 217.96C131.087 218.03 130.946 218.062 130.805 218.053C130.664 218.044 130.528 217.994 130.415 217.909C130.301 217.824 130.215 217.708 130.166 217.575C130.118 217.442 130.109 217.298 130.14 217.16L131.97 209.86C131.991 209.775 131.993 209.687 131.977 209.601C131.961 209.515 131.926 209.434 131.876 209.364C131.825 209.293 131.76 209.235 131.685 209.193C131.61 209.151 131.526 209.126 131.44 209.12C130.854 209.08 128.744 209.057 125.11 209.05C121.477 209.043 119.364 209.063 118.77 209.11C118.685 209.116 118.601 209.141 118.526 209.183C118.451 209.225 118.386 209.283 118.335 209.354C118.285 209.424 118.25 209.505 118.234 209.591C118.218 209.677 118.22 209.765 118.24 209.85L120.05 217.15C120.082 217.288 120.073 217.432 120.025 217.565C119.976 217.698 119.89 217.814 119.776 217.899C119.663 217.984 119.527 218.034 119.386 218.043C119.245 218.052 119.104 218.02 118.98 217.95L113.21 214.6C113.093 214.533 112.962 214.493 112.827 214.485C112.692 214.476 112.557 214.499 112.432 214.551C112.307 214.603 112.196 214.684 112.107 214.786C112.019 214.888 111.955 215.009 111.92 215.14L109.13 225.7C109.092 225.845 109.087 225.996 109.116 226.143C109.145 226.289 109.206 226.427 109.296 226.546C109.386 226.665 109.502 226.761 109.634 226.828C109.766 226.894 109.912 226.929 110.06 226.93L115.95 226.94C116.093 226.938 116.233 226.98 116.352 227.059C116.471 227.138 116.564 227.251 116.618 227.384C116.673 227.516 116.687 227.663 116.659 227.805C116.631 227.947 116.562 228.077 116.46 228.18L111.39 233.23C111.318 233.303 111.261 233.391 111.226 233.488C111.191 233.585 111.177 233.688 111.185 233.791C111.194 233.894 111.225 233.993 111.276 234.083C111.327 234.173 111.396 234.25 111.48 234.31L120.4 240.82C120.497 240.891 120.608 240.938 120.725 240.959C120.843 240.98 120.964 240.974 121.079 240.942C121.195 240.909 121.301 240.85 121.392 240.77C121.482 240.691 121.553 240.591 121.6 240.48C121.967 239.607 122.774 237.72 124.02 234.82C124.367 234.007 124.72 233.6 125.08 233.6Z" stroke="#C0ECEF"/>
<path d="M92.4913 232.841C92.738 232.841 92.898 232.921 92.9713 233.081C93.4246 234.074 94.0646 235.597 94.8913 237.651C94.9316 237.749 94.9937 237.837 95.0728 237.907C95.152 237.978 95.2462 238.03 95.3483 238.059C95.4504 238.088 95.5578 238.093 95.6622 238.074C95.7667 238.055 95.8656 238.013 95.9513 237.951L102.281 233.381C102.339 233.339 102.387 233.285 102.422 233.222C102.457 233.16 102.479 233.09 102.484 233.018C102.49 232.946 102.48 232.873 102.455 232.805C102.431 232.736 102.392 232.673 102.341 232.621L98.7413 229.001C98.6642 228.926 98.6117 228.83 98.5904 228.725C98.5691 228.62 98.5801 228.51 98.6219 228.411C98.6637 228.311 98.7345 228.225 98.8252 228.165C98.9159 228.104 99.0225 228.072 99.1313 228.071L103.251 228.081C103.36 228.082 103.467 228.059 103.566 228.013C103.664 227.966 103.75 227.898 103.818 227.813C103.885 227.728 103.932 227.628 103.956 227.522C103.979 227.416 103.977 227.306 103.951 227.201L101.991 219.661C101.964 219.559 101.914 219.464 101.844 219.385C101.774 219.305 101.687 219.243 101.59 219.202C101.492 219.161 101.387 219.144 101.281 219.151C101.176 219.157 101.073 219.188 100.981 219.241L97.0213 221.521C96.9245 221.577 96.8132 221.604 96.7014 221.597C96.5896 221.591 96.4821 221.551 96.3925 221.484C96.3029 221.417 96.2351 221.325 96.1975 221.219C96.1599 221.114 96.1543 220.999 96.1813 220.891L97.4513 215.741C97.4644 215.682 97.4646 215.621 97.452 215.562C97.4394 215.503 97.4142 215.447 97.3781 215.399C97.342 215.35 97.296 215.31 97.243 215.281C97.1901 215.252 97.1315 215.235 97.0713 215.231C96.958 215.211 95.4446 215.201 92.5313 215.201C89.6246 215.194 88.1146 215.201 88.0013 215.221C87.9411 215.225 87.8825 215.242 87.8296 215.271C87.7767 215.3 87.7306 215.34 87.6945 215.389C87.6585 215.437 87.6333 215.493 87.6206 215.552C87.608 215.611 87.6082 215.672 87.6213 215.731L88.8713 220.881C88.8966 220.988 88.8903 221.101 88.853 221.204C88.8157 221.308 88.749 221.399 88.6612 221.466C88.5733 221.532 88.468 221.572 88.3579 221.58C88.2479 221.588 88.1379 221.564 88.0413 221.511L84.0813 219.221C83.9896 219.168 83.8871 219.137 83.7816 219.131C83.6761 219.124 83.5705 219.141 83.4729 219.182C83.3753 219.223 83.2883 219.285 83.2187 219.365C83.1491 219.444 83.0987 219.539 83.0713 219.641L81.1013 227.171C81.0737 227.276 81.0707 227.386 81.0925 227.493C81.1143 227.6 81.1603 227.7 81.227 227.786C81.2937 227.872 81.3793 227.941 81.4771 227.989C81.575 228.037 81.6825 228.061 81.7913 228.061H85.9113C86.0201 228.062 86.1267 228.094 86.2174 228.155C86.3081 228.215 86.3788 228.301 86.4206 228.401C86.4624 228.5 86.4734 228.61 86.4522 228.715C86.4309 228.82 86.3784 228.916 86.3013 228.991L82.6913 232.601C82.6408 232.653 82.6018 232.716 82.5772 232.785C82.5525 232.853 82.5427 232.926 82.5484 232.998C82.5541 233.07 82.5751 233.14 82.6101 233.202C82.6452 233.265 82.6933 233.319 82.7513 233.361L89.0713 237.941C89.1571 238.003 89.2559 238.045 89.3604 238.064C89.4648 238.083 89.5722 238.078 89.6743 238.049C89.7764 238.02 89.8706 237.968 89.9498 237.897C90.029 237.827 90.091 237.739 90.1313 237.641C90.958 235.594 91.6013 234.074 92.0613 233.081C92.1346 232.921 92.278 232.841 92.4913 232.841Z" stroke="#C0ECEF"/>
<path d="M158.171 232.85C158.418 232.85 158.578 232.927 158.651 233.08C159.104 234.08 159.744 235.607 160.571 237.66C160.612 237.757 160.673 237.843 160.752 237.913C160.83 237.982 160.923 238.033 161.024 238.062C161.125 238.091 161.231 238.097 161.334 238.079C161.437 238.061 161.535 238.021 161.621 237.96L167.971 233.4C168.029 233.358 168.077 233.304 168.112 233.242C168.147 233.179 168.168 233.109 168.174 233.037C168.18 232.965 168.17 232.892 168.145 232.824C168.12 232.755 168.082 232.693 168.031 232.64L164.431 229.01C164.354 228.935 164.301 228.839 164.28 228.734C164.259 228.629 164.27 228.52 164.312 228.42C164.353 228.32 164.424 228.235 164.515 228.174C164.606 228.114 164.712 228.081 164.821 228.08L168.951 228.1C169.061 228.102 169.169 228.079 169.268 228.032C169.368 227.985 169.454 227.915 169.522 227.829C169.59 227.743 169.637 227.642 169.659 227.535C169.682 227.427 169.679 227.316 169.651 227.21L167.701 219.67C167.675 219.567 167.625 219.472 167.556 219.391C167.487 219.31 167.4 219.247 167.302 219.205C167.205 219.163 167.099 219.145 166.993 219.151C166.887 219.157 166.783 219.188 166.691 219.24L162.721 221.52C162.624 221.575 162.512 221.599 162.401 221.591C162.29 221.583 162.183 221.542 162.095 221.474C162.006 221.406 161.94 221.313 161.904 221.208C161.868 221.102 161.863 220.988 161.891 220.88L163.171 215.73C163.184 215.671 163.184 215.61 163.172 215.551C163.159 215.492 163.134 215.436 163.098 215.388C163.062 215.34 163.016 215.3 162.963 215.271C162.91 215.242 162.851 215.224 162.791 215.22C162.671 215.207 161.158 215.193 158.251 215.18C155.338 215.173 153.821 215.177 153.701 215.19C153.641 215.194 153.582 215.212 153.529 215.241C153.476 215.27 153.43 215.31 153.394 215.358C153.358 215.406 153.333 215.462 153.32 215.521C153.308 215.58 153.308 215.641 153.321 215.7L154.571 220.86C154.598 220.969 154.592 221.083 154.555 221.189C154.517 221.294 154.449 221.386 154.36 221.453C154.27 221.521 154.163 221.56 154.051 221.567C153.939 221.573 153.828 221.546 153.731 221.49L149.781 219.19C149.689 219.137 149.587 219.107 149.481 219.1C149.376 219.093 149.27 219.111 149.173 219.151C149.075 219.192 148.988 219.254 148.918 219.334C148.849 219.414 148.798 219.508 148.771 219.61L146.781 227.15C146.754 227.255 146.75 227.364 146.772 227.47C146.793 227.576 146.838 227.675 146.904 227.761C146.969 227.847 147.053 227.917 147.15 227.965C147.247 228.013 147.353 228.039 147.461 228.04H151.591C151.7 228.041 151.806 228.074 151.897 228.134C151.988 228.195 152.058 228.28 152.1 228.38C152.142 228.48 152.153 228.589 152.132 228.694C152.111 228.799 152.058 228.895 151.981 228.97L148.361 232.59C148.31 232.643 148.272 232.705 148.247 232.774C148.222 232.842 148.212 232.915 148.218 232.987C148.224 233.059 148.245 233.129 148.28 233.192C148.315 233.254 148.363 233.308 148.421 233.35L154.741 237.94C154.826 238.003 154.924 238.046 155.028 238.065C155.132 238.084 155.239 238.08 155.341 238.052C155.443 238.024 155.538 237.973 155.617 237.904C155.697 237.834 155.76 237.747 155.801 237.65C156.634 235.597 157.281 234.073 157.741 233.08C157.814 232.92 157.958 232.843 158.171 232.85Z" stroke="#C0ECEF"/>
<path d="M188.238 232.841C188.478 232.841 188.635 232.921 188.708 233.081C189.168 234.074 189.815 235.598 190.648 237.651C190.689 237.749 190.751 237.837 190.83 237.908C190.909 237.978 191.003 238.03 191.105 238.059C191.207 238.088 191.315 238.093 191.419 238.074C191.524 238.056 191.623 238.013 191.708 237.951L198.038 233.361C198.096 233.319 198.145 233.265 198.18 233.202C198.215 233.14 198.236 233.07 198.241 232.998C198.247 232.926 198.237 232.853 198.212 232.785C198.188 232.716 198.149 232.654 198.098 232.601L194.478 228.981C194.401 228.906 194.349 228.81 194.328 228.705C194.306 228.6 194.317 228.491 194.359 228.391C194.401 228.291 194.472 228.206 194.562 228.145C194.653 228.084 194.76 228.052 194.868 228.051H198.998C199.107 228.051 199.215 228.027 199.313 227.979C199.41 227.932 199.496 227.862 199.563 227.776C199.629 227.69 199.675 227.59 199.697 227.483C199.719 227.376 199.716 227.266 199.688 227.161L197.708 219.621C197.681 219.519 197.631 219.424 197.561 219.345C197.491 219.265 197.404 219.203 197.307 219.162C197.209 219.122 197.104 219.104 196.998 219.111C196.893 219.117 196.79 219.148 196.698 219.201L192.738 221.491C192.642 221.547 192.53 221.574 192.418 221.567C192.307 221.561 192.199 221.522 192.11 221.454C192.02 221.387 191.952 221.295 191.915 221.189C191.877 221.084 191.871 220.97 191.898 220.861L193.158 215.701C193.171 215.642 193.172 215.581 193.159 215.522C193.146 215.463 193.121 215.407 193.085 215.359C193.049 215.31 193.003 215.27 192.95 215.241C192.897 215.212 192.839 215.195 192.778 215.191C192.658 215.178 191.142 215.171 188.228 215.171C185.322 215.178 183.808 215.188 183.688 215.201C183.628 215.205 183.57 215.222 183.517 215.251C183.464 215.28 183.418 215.32 183.382 215.369C183.346 215.417 183.32 215.473 183.308 215.532C183.295 215.591 183.295 215.652 183.308 215.711L184.578 220.871C184.605 220.98 184.6 221.094 184.562 221.199C184.525 221.305 184.457 221.397 184.367 221.464C184.278 221.532 184.17 221.571 184.058 221.577C183.946 221.584 183.835 221.557 183.738 221.501L179.778 219.221C179.686 219.168 179.583 219.138 179.477 219.132C179.371 219.126 179.265 219.144 179.167 219.186C179.069 219.227 178.982 219.291 178.913 219.372C178.844 219.452 178.795 219.548 178.768 219.651L176.808 227.191C176.781 227.296 176.778 227.406 176.8 227.513C176.821 227.62 176.867 227.72 176.934 227.806C177.001 227.892 177.086 227.962 177.184 228.009C177.282 228.057 177.39 228.081 177.498 228.081L181.628 228.071C181.737 228.072 181.844 228.104 181.934 228.165C182.025 228.226 182.096 228.311 182.138 228.411C182.18 228.511 182.191 228.62 182.169 228.725C182.148 228.83 182.096 228.926 182.018 229.001L178.408 232.631C178.358 232.684 178.32 232.747 178.296 232.816C178.272 232.885 178.263 232.958 178.27 233.03C178.277 233.102 178.299 233.172 178.335 233.234C178.371 233.296 178.42 233.35 178.478 233.391L184.818 237.961C184.904 238.023 185.003 238.066 185.107 238.084C185.212 238.103 185.319 238.098 185.421 238.069C185.523 238.04 185.618 237.988 185.697 237.918C185.776 237.847 185.838 237.759 185.878 237.661C186.705 235.601 187.345 234.074 187.798 233.081C187.872 232.921 188.018 232.841 188.238 232.841Z" stroke="#C0ECEF"/>
<path d="M143.7 123.33C143.7 122.731 143.462 122.156 143.038 121.732C142.614 121.308 142.039 121.07 141.44 121.07C140.84 121.07 140.265 121.308 139.842 121.732C139.418 122.156 139.18 122.731 139.18 123.33C139.18 123.93 139.418 124.505 139.842 124.928C140.265 125.352 140.84 125.59 141.44 125.59C142.039 125.59 142.614 125.352 143.038 124.928C143.462 124.505 143.7 123.93 143.7 123.33Z" stroke="#C0ECEF"/>
<path d="M149.5 336.25C149.5 335.046 149.263 333.853 148.802 332.741C148.341 331.628 147.666 330.617 146.814 329.766C145.963 328.914 144.952 328.239 143.839 327.778C142.727 327.317 141.534 327.08 140.33 327.08C139.126 327.08 137.934 327.317 136.821 327.778C135.708 328.239 134.697 328.914 133.846 329.766C132.994 330.617 132.319 331.628 131.858 332.741C131.397 333.853 131.16 335.046 131.16 336.25C131.16 337.454 131.397 338.647 131.858 339.759C132.319 340.872 132.994 341.883 133.846 342.734C134.697 343.586 135.708 344.261 136.821 344.722C137.934 345.183 139.126 345.42 140.33 345.42C141.534 345.42 142.727 345.183 143.839 344.722C144.952 344.261 145.963 343.586 146.814 342.734C147.666 341.883 148.341 340.872 148.802 339.759C149.263 338.647 149.5 337.454 149.5 336.25Z" stroke="#C0ECEF"/>
<path d="M47.4494 79.0305C47.3768 79.0281 47.3061 79.007 47.2441 78.9692C47.1822 78.9314 47.1311 78.8781 47.0958 78.8147C47.0606 78.7512 47.0424 78.6797 47.043 78.6071C47.0436 78.5345 47.063 78.4634 47.0994 78.4005C82.4594 16.4105 158.069 -9.83949 223.809 18.2105C266.519 36.4305 297.229 74.1305 306.369 119.55C320.269 188.601 280.479 257.181 213.829 279.741C213.747 279.767 213.66 279.774 213.574 279.761C213.489 279.747 213.407 279.714 213.337 279.663C213.267 279.613 213.21 279.546 213.17 279.469C213.131 279.392 213.11 279.307 213.109 279.221V118.681C213.109 117.938 212.861 117.217 212.405 116.632C211.948 116.047 211.309 115.631 210.589 115.45L208.639 114.961C208.089 114.824 207.602 114.507 207.259 114.06C204.499 110.46 200.289 111.04 195.009 111.05C131.063 111.064 96.9794 111.067 92.7594 111.06C92.6363 111.06 92.5166 111.022 92.4164 110.953C92.3163 110.883 92.2405 110.784 92.1994 110.67C85.2394 91.5105 67.6294 79.5605 47.4494 79.0305Z" fill="#FFF1E4"/>
<path d="M81.2183 177.161C81.224 177.219 81.2141 177.278 81.1897 177.331C81.1653 177.384 81.1273 177.429 81.0795 177.463C81.0317 177.496 80.9759 177.517 80.9177 177.522C80.8595 177.527 80.8011 177.516 80.7483 177.491L62.9483 169.091C62.1748 168.73 61.2948 168.659 60.4683 168.891C48.475 172.258 37.3683 171.324 27.1483 166.091C0.288324 152.341 -5.16168 116.281 16.6083 95.3309C43.3483 69.6009 88.3283 86.7009 90.9783 124.021C91.825 135.888 88.115 146.681 79.8483 156.401C79.6458 156.642 79.4936 156.921 79.4008 157.221C79.3081 157.522 79.2766 157.838 79.3083 158.151L81.2183 177.161ZM39.9483 128.951C38.7417 128.071 35.455 125.254 30.0883 120.501C22.6583 113.941 13.1483 124.401 21.3483 131.471C25.8217 135.324 30.3083 139.201 34.8083 143.101C37.7283 145.641 39.3383 146.481 42.7983 145.911C43.905 145.724 45.635 144.408 47.9883 141.961C62.8417 126.474 71.1817 117.808 73.0083 115.961C75.2683 113.661 76.7083 111.431 76.0383 108.381C75.5583 106.181 74.2783 104.558 72.1983 103.511C68.2683 101.531 65.3383 103.621 62.3383 106.761C53.3317 116.228 46.2617 123.594 41.1283 128.861C40.9747 129.014 40.7713 129.107 40.5549 129.124C40.3386 129.14 40.1234 129.079 39.9483 128.951Z" fill="#C2F8CF"/>
<path d="M41.1301 128.86C46.2635 123.594 53.3335 116.227 62.3401 106.76C65.3401 103.62 68.2701 101.53 72.2001 103.51C74.2801 104.557 75.5601 106.18 76.0401 108.38C76.7101 111.43 75.2701 113.66 73.0101 115.96C71.1835 117.807 62.8435 126.474 47.9901 141.96C45.6368 144.407 43.9068 145.724 42.8001 145.91C39.3401 146.48 37.7301 145.64 34.8101 143.1C30.3101 139.2 25.8235 135.324 21.3501 131.47C13.1501 124.4 22.6601 113.94 30.0901 120.5C35.4568 125.254 38.7435 128.07 39.9501 128.95C40.1253 129.079 40.3404 129.14 40.5568 129.123C40.7731 129.107 40.9765 129.014 41.1301 128.86Z" fill="#131A24"/>
<path d="M75.8294 179.54C77.8427 180.494 79.956 181.51 82.1694 182.59C84.3094 183.63 85.9294 182.69 85.6094 180.06C84.5827 171.64 83.866 164.6 83.4594 158.94C83.4398 158.593 83.5503 158.251 83.7694 157.98C93.8827 145.54 97.206 131.36 93.7394 115.44C93.729 115.393 93.7294 115.343 93.7406 115.295C93.7518 115.247 93.7735 115.203 93.8042 115.164C93.8348 115.126 93.8737 115.095 93.9178 115.074C93.9619 115.052 94.0103 115.041 94.0594 115.04H114.699C114.755 115.04 114.811 115.052 114.862 115.073C114.914 115.095 114.961 115.127 115 115.167C115.039 115.207 115.07 115.255 115.09 115.307C115.111 115.359 115.121 115.414 115.119 115.47C115.066 117.937 115.099 122.04 115.219 127.78C115.313 132.594 117.809 135 122.709 135C142.683 135 154.029 135.027 156.749 135.08C160.349 135.14 162.713 134.817 163.839 134.11C165.906 132.81 166.979 130.707 167.059 127.8C167.139 125.114 167.139 121.004 167.059 115.47C167.058 115.417 167.067 115.364 167.087 115.314C167.106 115.265 167.136 115.219 167.173 115.181C167.21 115.143 167.255 115.113 167.304 115.092C167.353 115.071 167.406 115.06 167.459 115.06C180.613 114.967 191.833 114.974 201.119 115.08C205.299 115.13 205.139 118.82 205.139 122.05C205.133 191.804 205.136 255.937 205.149 314.45C205.149 314.615 205.084 314.773 204.968 314.889C204.852 315.005 204.694 315.07 204.529 315.07H75.6794C75.5282 315.07 75.3832 315.009 75.2763 314.901C75.1694 314.792 75.1094 314.644 75.1094 314.49V179.99C75.1092 179.905 75.1307 179.822 75.1718 179.748C75.2129 179.673 75.2723 179.61 75.3444 179.565C75.4164 179.52 75.4988 179.494 75.5836 179.49C75.6685 179.486 75.7531 179.503 75.8294 179.54ZM125.079 233.6C125.433 233.6 125.786 234.007 126.139 234.82C127.379 237.727 128.179 239.617 128.539 240.49C128.586 240.602 128.658 240.701 128.748 240.781C128.838 240.861 128.945 240.919 129.061 240.952C129.176 240.985 129.297 240.991 129.415 240.97C129.532 240.949 129.643 240.901 129.739 240.83L138.679 234.34C138.763 234.281 138.833 234.203 138.884 234.113C138.935 234.024 138.966 233.924 138.975 233.821C138.983 233.719 138.969 233.615 138.934 233.518C138.898 233.421 138.842 233.333 138.769 233.26L133.709 228.2C133.608 228.098 133.539 227.967 133.511 227.825C133.483 227.683 133.497 227.537 133.551 227.404C133.606 227.271 133.699 227.158 133.818 227.079C133.937 227 134.076 226.959 134.219 226.96H140.109C140.258 226.961 140.405 226.927 140.539 226.862C140.673 226.796 140.79 226.7 140.881 226.581C140.971 226.462 141.034 226.323 141.063 226.176C141.093 226.028 141.088 225.876 141.049 225.73L138.279 215.17C138.245 215.04 138.181 214.918 138.092 214.816C138.004 214.714 137.893 214.634 137.768 214.582C137.643 214.529 137.508 214.507 137.373 214.515C137.238 214.524 137.107 214.563 136.989 214.63L131.209 217.96C131.086 218.03 130.945 218.062 130.804 218.053C130.663 218.044 130.527 217.994 130.414 217.909C130.3 217.825 130.214 217.709 130.165 217.576C130.116 217.443 130.108 217.298 130.139 217.16L131.969 209.86C131.99 209.776 131.992 209.687 131.976 209.601C131.96 209.516 131.925 209.435 131.874 209.364C131.824 209.294 131.759 209.235 131.684 209.193C131.609 209.151 131.525 209.126 131.439 209.12C130.853 209.08 128.743 209.057 125.109 209.05C121.476 209.044 119.363 209.064 118.769 209.11C118.684 209.116 118.6 209.141 118.525 209.183C118.45 209.225 118.385 209.284 118.334 209.354C118.284 209.425 118.249 209.506 118.233 209.591C118.216 209.677 118.219 209.766 118.239 209.85L120.049 217.15C120.081 217.288 120.072 217.433 120.024 217.566C119.975 217.699 119.889 217.815 119.775 217.899C119.662 217.984 119.526 218.034 119.385 218.043C119.244 218.052 119.103 218.02 118.979 217.95L113.209 214.6C113.092 214.533 112.961 214.494 112.826 214.485C112.691 214.477 112.556 214.499 112.431 214.552C112.306 214.604 112.195 214.684 112.106 214.786C112.018 214.888 111.954 215.01 111.919 215.14L109.129 225.7C109.091 225.845 109.086 225.997 109.115 226.143C109.144 226.29 109.205 226.428 109.295 226.547C109.385 226.665 109.5 226.762 109.633 226.828C109.765 226.895 109.911 226.93 110.059 226.93L115.949 226.94C116.092 226.939 116.232 226.98 116.351 227.059C116.47 227.138 116.563 227.251 116.617 227.384C116.672 227.517 116.686 227.663 116.658 227.805C116.63 227.947 116.561 228.078 116.459 228.18L111.389 233.23C111.316 233.303 111.26 233.391 111.225 233.488C111.189 233.585 111.175 233.689 111.184 233.791C111.193 233.894 111.223 233.994 111.274 234.083C111.325 234.173 111.395 234.251 111.479 234.31L120.399 240.82C120.495 240.891 120.606 240.939 120.724 240.96C120.842 240.981 120.963 240.975 121.078 240.942C121.193 240.909 121.3 240.851 121.391 240.771C121.481 240.691 121.552 240.592 121.599 240.48C121.966 239.607 122.773 237.72 124.019 234.82C124.366 234.007 124.719 233.6 125.079 233.6ZM92.4894 232.84C92.736 232.84 92.896 232.92 92.9694 233.08C93.4227 234.074 94.0627 235.597 94.8894 237.65C94.9296 237.749 94.9917 237.836 95.0709 237.907C95.1501 237.978 95.2443 238.029 95.3464 238.058C95.4485 238.087 95.5558 238.093 95.6603 238.074C95.7648 238.055 95.8636 238.013 95.9494 237.95L102.279 233.38C102.337 233.339 102.386 233.284 102.421 233.222C102.456 233.159 102.477 233.09 102.482 233.018C102.488 232.946 102.478 232.873 102.454 232.804C102.429 232.736 102.39 232.673 102.339 232.62L98.7394 229C98.6623 228.926 98.6097 228.83 98.5885 228.724C98.5672 228.619 98.5782 228.51 98.62 228.41C98.6618 228.311 98.7326 228.225 98.8233 228.165C98.914 228.104 99.0205 228.071 99.1294 228.07L103.249 228.08C103.358 228.082 103.466 228.059 103.564 228.012C103.662 227.966 103.748 227.898 103.816 227.813C103.883 227.728 103.931 227.628 103.954 227.522C103.977 227.416 103.975 227.306 103.949 227.2L101.989 219.66C101.962 219.558 101.912 219.464 101.842 219.384C101.772 219.305 101.685 219.242 101.588 219.202C101.49 219.161 101.385 219.144 101.279 219.15C101.174 219.157 101.071 219.188 100.979 219.24L97.0194 221.52C96.9226 221.577 96.8113 221.603 96.6995 221.597C96.5876 221.59 96.4802 221.551 96.3906 221.484C96.3009 221.417 96.2331 221.325 96.1956 221.219C96.158 221.113 96.1524 220.999 96.1794 220.89L97.4494 215.74C97.4625 215.682 97.4627 215.62 97.4501 215.561C97.4374 215.502 97.4122 215.447 97.3762 215.398C97.3401 215.35 97.294 215.31 97.2411 215.281C97.1882 215.252 97.1296 215.235 97.0694 215.23C96.9561 215.21 95.4427 215.2 92.5294 215.2C89.6227 215.194 88.1127 215.2 87.9994 215.22C87.9392 215.225 87.8806 215.242 87.8277 215.271C87.7747 215.3 87.7287 215.34 87.6926 215.388C87.6565 215.437 87.6313 215.492 87.6187 215.551C87.6061 215.61 87.6063 215.672 87.6194 215.73L88.8694 220.88C88.8947 220.988 88.8883 221.1 88.851 221.204C88.8137 221.308 88.7471 221.399 88.6592 221.465C88.5714 221.532 88.466 221.572 88.356 221.58C88.246 221.588 88.136 221.564 88.0394 221.51L84.0794 219.22C83.9877 219.168 83.8852 219.137 83.7797 219.13C83.6742 219.124 83.5686 219.141 83.471 219.182C83.3734 219.222 83.2864 219.285 83.2168 219.364C83.1471 219.444 83.0967 219.538 83.0694 219.64L81.0994 227.17C81.0718 227.276 81.0688 227.386 81.0906 227.493C81.1124 227.599 81.1584 227.699 81.2251 227.785C81.2918 227.872 81.3773 227.941 81.4752 227.989C81.573 228.036 81.6805 228.061 81.7894 228.06H85.9094C86.0182 228.061 86.1247 228.094 86.2154 228.155C86.3061 228.215 86.3769 228.301 86.4187 228.4C86.4605 228.5 86.4715 228.609 86.4502 228.715C86.429 228.82 86.3765 228.916 86.2994 228.99L82.6894 232.6C82.6388 232.653 82.5999 232.716 82.5752 232.784C82.5506 232.853 82.5408 232.926 82.5464 232.998C82.5521 233.07 82.5732 233.139 82.6082 233.202C82.6432 233.264 82.6914 233.319 82.7494 233.36L89.0694 237.94C89.1551 238.003 89.254 238.045 89.3584 238.064C89.4629 238.083 89.5703 238.077 89.6724 238.048C89.7745 238.019 89.8687 237.968 89.9479 237.897C90.027 237.826 90.0891 237.739 90.1294 237.64C90.956 235.594 91.5994 234.074 92.0594 233.08C92.1327 232.92 92.276 232.84 92.4894 232.84ZM158.169 232.85C158.416 232.85 158.576 232.927 158.649 233.08C159.103 234.08 159.743 235.607 160.569 237.66C160.61 237.757 160.672 237.843 160.75 237.913C160.829 237.982 160.922 238.034 161.022 238.062C161.123 238.091 161.229 238.097 161.332 238.079C161.436 238.062 161.534 238.021 161.619 237.96L167.969 233.4C168.027 233.359 168.076 233.304 168.111 233.242C168.146 233.179 168.167 233.11 168.172 233.038C168.178 232.966 168.168 232.893 168.144 232.824C168.119 232.756 168.08 232.693 168.029 232.64L164.429 229.01C164.352 228.936 164.3 228.84 164.278 228.734C164.257 228.629 164.268 228.52 164.31 228.42C164.352 228.321 164.423 228.235 164.513 228.175C164.604 228.114 164.711 228.081 164.819 228.08L168.949 228.1C169.059 228.102 169.168 228.079 169.267 228.032C169.366 227.985 169.453 227.916 169.521 227.83C169.588 227.743 169.635 227.643 169.658 227.535C169.68 227.428 169.677 227.317 169.649 227.21L167.699 219.67C167.673 219.567 167.624 219.472 167.555 219.391C167.485 219.311 167.399 219.247 167.301 219.205C167.203 219.164 167.097 219.145 166.991 219.151C166.885 219.157 166.782 219.188 166.689 219.24L162.719 221.52C162.622 221.575 162.511 221.6 162.399 221.591C162.288 221.583 162.182 221.542 162.093 221.474C162.005 221.406 161.938 221.314 161.902 221.208C161.866 221.102 161.861 220.989 161.889 220.88L163.169 215.73C163.182 215.672 163.183 215.61 163.17 215.551C163.157 215.492 163.132 215.437 163.096 215.388C163.06 215.34 163.014 215.3 162.961 215.271C162.908 215.242 162.85 215.225 162.789 215.22C162.669 215.207 161.156 215.194 158.249 215.18C155.336 215.174 153.819 215.177 153.699 215.19C153.639 215.195 153.581 215.212 153.528 215.241C153.475 215.27 153.429 215.31 153.393 215.358C153.357 215.407 153.331 215.462 153.319 215.521C153.306 215.58 153.306 215.642 153.319 215.7L154.569 220.86C154.596 220.969 154.591 221.083 154.553 221.189C154.516 221.295 154.448 221.387 154.358 221.454C154.269 221.521 154.161 221.56 154.049 221.567C153.937 221.573 153.826 221.547 153.729 221.49L149.779 219.19C149.688 219.138 149.585 219.107 149.48 219.1C149.374 219.094 149.269 219.111 149.171 219.152C149.073 219.192 148.986 219.255 148.917 219.334C148.847 219.414 148.797 219.508 148.769 219.61L146.779 227.15C146.752 227.255 146.749 227.364 146.77 227.47C146.791 227.576 146.836 227.676 146.902 227.762C146.968 227.847 147.052 227.917 147.148 227.965C147.245 228.014 147.351 228.039 147.459 228.04H151.589C151.698 228.041 151.805 228.074 151.895 228.135C151.986 228.195 152.057 228.281 152.099 228.38C152.14 228.48 152.151 228.589 152.13 228.694C152.109 228.8 152.056 228.896 151.979 228.97L148.359 232.59C148.309 232.643 148.27 232.706 148.245 232.774C148.221 232.843 148.211 232.916 148.216 232.988C148.222 233.06 148.243 233.129 148.278 233.192C148.313 233.255 148.361 233.309 148.419 233.35L154.739 237.94C154.824 238.003 154.923 238.046 155.027 238.065C155.131 238.085 155.238 238.08 155.34 238.052C155.442 238.024 155.536 237.974 155.616 237.904C155.695 237.835 155.758 237.748 155.799 237.65C156.633 235.597 157.279 234.074 157.739 233.08C157.813 232.92 157.956 232.844 158.169 232.85ZM188.239 232.84C188.479 232.84 188.636 232.92 188.709 233.08C189.169 234.074 189.816 235.597 190.649 237.65C190.69 237.749 190.752 237.836 190.831 237.907C190.91 237.978 191.004 238.029 191.106 238.058C191.209 238.087 191.316 238.093 191.42 238.074C191.525 238.055 191.624 238.013 191.709 237.95L198.039 233.36C198.097 233.319 198.146 233.264 198.181 233.202C198.216 233.139 198.237 233.07 198.242 232.998C198.248 232.926 198.238 232.853 198.214 232.784C198.189 232.716 198.15 232.653 198.099 232.6L194.479 228.98C194.402 228.906 194.35 228.81 194.329 228.705C194.307 228.599 194.318 228.49 194.36 228.39C194.402 228.291 194.473 228.205 194.563 228.145C194.654 228.084 194.761 228.051 194.869 228.05H198.999C199.108 228.051 199.216 228.026 199.314 227.979C199.411 227.931 199.497 227.862 199.564 227.775C199.63 227.689 199.676 227.589 199.698 227.483C199.72 227.376 199.717 227.266 199.689 227.16L197.709 219.62C197.682 219.518 197.632 219.424 197.562 219.344C197.492 219.265 197.405 219.202 197.308 219.162C197.21 219.121 197.105 219.104 196.999 219.11C196.894 219.117 196.791 219.148 196.699 219.2L192.739 221.49C192.643 221.547 192.531 221.573 192.419 221.567C192.308 221.56 192.2 221.521 192.111 221.454C192.021 221.387 191.953 221.295 191.916 221.189C191.878 221.083 191.872 220.969 191.899 220.86L193.159 215.7C193.172 215.642 193.173 215.58 193.16 215.521C193.147 215.462 193.122 215.407 193.086 215.358C193.05 215.31 193.004 215.27 192.951 215.241C192.898 215.212 192.84 215.195 192.779 215.19C192.659 215.177 191.143 215.17 188.229 215.17C185.323 215.177 183.809 215.187 183.689 215.2C183.629 215.205 183.571 215.222 183.518 215.251C183.465 215.28 183.419 215.32 183.383 215.368C183.347 215.417 183.321 215.472 183.309 215.531C183.296 215.59 183.296 215.652 183.309 215.71L184.579 220.87C184.606 220.979 184.601 221.093 184.563 221.199C184.526 221.305 184.458 221.397 184.368 221.464C184.279 221.531 184.171 221.57 184.059 221.577C183.947 221.583 183.836 221.557 183.739 221.5L179.779 219.22C179.687 219.168 179.584 219.137 179.478 219.131C179.372 219.125 179.266 219.144 179.168 219.185C179.07 219.227 178.983 219.291 178.914 219.371C178.845 219.452 178.796 219.547 178.769 219.65L176.809 227.19C176.782 227.296 176.779 227.406 176.801 227.513C176.822 227.619 176.868 227.719 176.935 227.805C177.002 227.892 177.087 227.961 177.185 228.009C177.283 228.056 177.391 228.081 177.499 228.08L181.629 228.07C181.738 228.071 181.845 228.104 181.936 228.165C182.026 228.225 182.097 228.311 182.139 228.41C182.181 228.51 182.192 228.619 182.17 228.724C182.149 228.83 182.097 228.926 182.019 229L178.409 232.63C178.359 232.684 178.321 232.747 178.297 232.816C178.273 232.885 178.264 232.958 178.271 233.03C178.278 233.102 178.3 233.171 178.336 233.234C178.372 233.296 178.421 233.349 178.479 233.39L184.819 237.96C184.905 238.023 185.004 238.065 185.108 238.084C185.213 238.103 185.32 238.097 185.422 238.068C185.524 238.039 185.619 237.988 185.698 237.917C185.777 237.846 185.839 237.759 185.879 237.66C186.706 235.6 187.346 234.074 187.799 233.08C187.873 232.92 188.019 232.84 188.239 232.84Z" fill="white"/>
<path d="M162.548 115.031C162.709 115.031 162.865 115.096 162.979 115.21C163.093 115.324 163.158 115.479 163.158 115.641V127.741C163.158 128.624 162.815 129.471 162.206 130.096C161.596 130.72 160.77 131.071 159.908 131.071H122.348C121.486 131.071 120.659 130.72 120.05 130.096C119.44 129.471 119.098 128.624 119.098 127.741V115.641C119.098 115.479 119.162 115.324 119.276 115.21C119.391 115.096 119.546 115.031 119.708 115.031H162.548ZM143.698 123.331C143.698 122.732 143.46 122.157 143.036 121.733C142.612 121.309 142.037 121.071 141.438 121.071C140.838 121.071 140.263 121.309 139.84 121.733C139.416 122.157 139.178 122.732 139.178 123.331C139.178 123.931 139.416 124.505 139.84 124.929C140.263 125.353 140.838 125.591 141.438 125.591C142.037 125.591 142.612 125.353 143.036 124.929C143.46 124.505 143.698 123.931 143.698 123.331Z" fill="#C0ECEF"/>
<path d="M141.44 125.59C142.688 125.59 143.7 124.578 143.7 123.33C143.7 122.082 142.688 121.07 141.44 121.07C140.192 121.07 139.18 122.082 139.18 123.33C139.18 124.578 140.192 125.59 141.44 125.59Z" fill="#131A24"/>
<path d="M71.1476 246.491C71.1477 246.538 71.1337 246.585 71.1073 246.625C71.0809 246.664 71.0434 246.695 70.9995 246.713C70.9555 246.731 70.9072 246.736 70.8606 246.727C70.8139 246.718 70.7711 246.695 70.7376 246.661C50.1242 226.008 37.0376 201.381 31.4776 172.781C31.4681 172.728 31.4724 172.674 31.4901 172.624C31.5078 172.573 31.5383 172.528 31.5785 172.493C31.6188 172.457 31.6675 172.433 31.7199 172.422C31.7723 172.412 31.8266 172.415 31.8776 172.431C41.2776 175.504 50.7542 175.704 60.3075 173.031C60.9719 172.844 61.6783 172.901 62.2975 173.191L70.5976 177.111C70.7617 177.188 70.9006 177.31 70.9979 177.463C71.0953 177.615 71.1472 177.791 71.1476 177.971V246.491Z" fill="#FFF1E4"/>
<path d="M125.11 209.051C128.744 209.058 130.854 209.081 131.44 209.121C131.526 209.127 131.61 209.152 131.685 209.194C131.76 209.236 131.825 209.294 131.876 209.365C131.926 209.435 131.961 209.516 131.977 209.602C131.993 209.688 131.991 209.776 131.97 209.861L130.14 217.161C130.109 217.299 130.118 217.443 130.166 217.576C130.215 217.709 130.301 217.825 130.415 217.91C130.528 217.995 130.664 218.045 130.805 218.054C130.946 218.063 131.087 218.031 131.21 217.961L136.99 214.631C137.108 214.564 137.239 214.524 137.374 214.516C137.509 214.507 137.644 214.53 137.769 214.582C137.894 214.634 138.005 214.715 138.094 214.817C138.182 214.919 138.246 215.04 138.28 215.171L141.05 225.731C141.089 225.876 141.094 226.029 141.064 226.176C141.035 226.324 140.973 226.462 140.882 226.581C140.791 226.7 140.674 226.796 140.54 226.862C140.406 226.928 140.259 226.962 140.11 226.961H134.22C134.078 226.959 133.938 227.001 133.819 227.08C133.7 227.159 133.607 227.272 133.553 227.405C133.498 227.537 133.484 227.684 133.512 227.826C133.54 227.968 133.609 228.098 133.71 228.201L138.77 233.261C138.843 233.334 138.9 233.422 138.935 233.519C138.97 233.616 138.984 233.719 138.976 233.822C138.967 233.925 138.936 234.024 138.885 234.114C138.834 234.204 138.764 234.281 138.68 234.341L129.74 240.831C129.644 240.902 129.533 240.949 129.416 240.97C129.298 240.991 129.177 240.985 129.062 240.953C128.946 240.92 128.84 240.861 128.749 240.781C128.659 240.702 128.588 240.602 128.54 240.491C128.18 239.618 127.38 237.728 126.14 234.821C125.787 234.008 125.434 233.601 125.08 233.601C124.72 233.601 124.367 234.008 124.02 234.821C122.774 237.721 121.967 239.608 121.6 240.481C121.553 240.592 121.482 240.691 121.392 240.771C121.301 240.851 121.195 240.91 121.079 240.943C120.964 240.975 120.843 240.981 120.725 240.96C120.608 240.939 120.497 240.892 120.4 240.821L111.48 234.311C111.396 234.251 111.327 234.174 111.276 234.084C111.225 233.994 111.194 233.895 111.185 233.792C111.177 233.689 111.191 233.586 111.226 233.489C111.261 233.392 111.318 233.304 111.39 233.231L116.46 228.181C116.562 228.078 116.631 227.948 116.659 227.806C116.687 227.664 116.673 227.517 116.618 227.384C116.564 227.252 116.471 227.139 116.352 227.06C116.233 226.981 116.093 226.939 115.95 226.941L110.06 226.931C109.912 226.93 109.766 226.895 109.634 226.829C109.502 226.762 109.386 226.666 109.296 226.547C109.206 226.428 109.145 226.29 109.116 226.144C109.087 225.997 109.092 225.846 109.13 225.701L111.92 215.141C111.955 215.01 112.019 214.889 112.107 214.787C112.196 214.685 112.307 214.604 112.432 214.552C112.557 214.5 112.692 214.477 112.827 214.486C112.962 214.494 113.093 214.534 113.21 214.601L118.98 217.951C119.104 218.021 119.245 218.053 119.386 218.044C119.527 218.035 119.663 217.985 119.776 217.9C119.89 217.815 119.976 217.699 120.025 217.566C120.073 217.433 120.082 217.289 120.05 217.151L118.24 209.851C118.22 209.766 118.218 209.678 118.234 209.592C118.25 209.506 118.285 209.425 118.335 209.355C118.386 209.284 118.451 209.226 118.526 209.184C118.601 209.142 118.685 209.117 118.77 209.111C119.364 209.064 121.477 209.044 125.11 209.051Z" fill="#131A24"/>
<path d="M92.4874 232.841C92.2741 232.841 92.1307 232.921 92.0574 233.081C91.5974 234.074 90.9541 235.594 90.1274 237.641C90.0871 237.739 90.0251 237.827 89.9459 237.897C89.8667 237.968 89.7725 238.02 89.6704 238.049C89.5683 238.078 89.4609 238.083 89.3565 238.064C89.252 238.045 89.1532 238.003 89.0674 237.941L82.7474 233.361C82.6894 233.319 82.6412 233.265 82.6062 233.202C82.5712 233.14 82.5502 233.07 82.5445 232.998C82.5388 232.926 82.5486 232.853 82.5733 232.785C82.5979 232.716 82.6368 232.653 82.6874 232.601L86.2974 228.991C86.3745 228.916 86.427 228.82 86.4483 228.715C86.4695 228.61 86.4585 228.5 86.4167 228.401C86.3749 228.301 86.3042 228.215 86.2135 228.155C86.1228 228.094 86.0162 228.062 85.9074 228.061H81.7874C81.6786 228.061 81.5711 228.037 81.4732 227.989C81.3754 227.941 81.2898 227.872 81.2231 227.786C81.1564 227.7 81.1104 227.6 81.0886 227.493C81.0668 227.386 81.0698 227.276 81.0974 227.171L83.0674 219.641C83.0948 219.539 83.1452 219.444 83.2148 219.365C83.2844 219.285 83.3714 219.223 83.469 219.182C83.5666 219.141 83.6722 219.124 83.7777 219.131C83.8832 219.137 83.9857 219.168 84.0774 219.221L88.0374 221.511C88.134 221.564 88.244 221.588 88.354 221.58C88.464 221.572 88.5694 221.532 88.6573 221.466C88.7451 221.399 88.8118 221.308 88.8491 221.204C88.8864 221.101 88.8927 220.988 88.8674 220.881L87.6174 215.731C87.6043 215.672 87.6041 215.611 87.6167 215.552C87.6294 215.493 87.6546 215.437 87.6906 215.389C87.7267 215.34 87.7728 215.3 87.8257 215.271C87.8786 215.242 87.9372 215.225 87.9974 215.221C88.1107 215.201 89.6207 215.194 92.5274 215.201C95.4407 215.201 96.9541 215.211 97.0674 215.231C97.1276 215.235 97.1862 215.252 97.2391 215.281C97.2921 215.31 97.3381 215.35 97.3742 215.399C97.4103 215.447 97.4355 215.503 97.4481 215.562C97.4607 215.621 97.4605 215.682 97.4474 215.741L96.1774 220.891C96.1504 220.999 96.156 221.114 96.1936 221.219C96.2312 221.325 96.299 221.417 96.3886 221.484C96.4782 221.551 96.5857 221.591 96.6975 221.597C96.8093 221.604 96.9206 221.577 97.0174 221.521L100.977 219.241C101.069 219.188 101.172 219.157 101.277 219.151C101.383 219.144 101.488 219.161 101.586 219.202C101.683 219.243 101.77 219.305 101.84 219.385C101.91 219.464 101.96 219.559 101.987 219.661L103.947 227.201C103.973 227.306 103.975 227.416 103.952 227.522C103.929 227.628 103.881 227.728 103.814 227.813C103.746 227.898 103.66 227.966 103.562 228.013C103.464 228.059 103.356 228.082 103.247 228.081L99.1274 228.071C99.0186 228.072 98.912 228.104 98.8213 228.165C98.7306 228.225 98.6598 228.311 98.618 228.411C98.5762 228.51 98.5652 228.62 98.5865 228.725C98.6078 228.83 98.6603 228.926 98.7374 229.001L102.337 232.621C102.388 232.673 102.427 232.736 102.452 232.805C102.476 232.873 102.486 232.946 102.48 233.018C102.475 233.09 102.454 233.16 102.419 233.222C102.384 233.285 102.335 233.339 102.277 233.381L95.9474 237.951C95.8617 238.013 95.7628 238.055 95.6583 238.074C95.5539 238.093 95.4465 238.088 95.3444 238.059C95.2423 238.03 95.1481 237.978 95.0689 237.907C94.9898 237.837 94.9277 237.749 94.8874 237.651C94.0607 235.597 93.4207 234.074 92.9674 233.081C92.8941 232.921 92.7341 232.841 92.4874 232.841Z" fill="#131A24"/>
<path d="M158.167 232.851C157.954 232.844 157.81 232.921 157.737 233.081C157.277 234.074 156.63 235.598 155.797 237.651C155.756 237.748 155.693 237.835 155.613 237.905C155.534 237.974 155.439 238.025 155.337 238.053C155.235 238.081 155.128 238.085 155.024 238.066C154.92 238.047 154.822 238.004 154.737 237.941L148.417 233.351C148.359 233.309 148.311 233.255 148.276 233.193C148.241 233.13 148.22 233.06 148.214 232.988C148.208 232.916 148.218 232.843 148.243 232.775C148.268 232.706 148.307 232.644 148.357 232.591L151.977 228.971C152.054 228.896 152.107 228.8 152.128 228.695C152.149 228.59 152.138 228.481 152.096 228.381C152.055 228.281 151.984 228.196 151.893 228.135C151.802 228.075 151.696 228.042 151.587 228.041H147.457C147.349 228.04 147.243 228.014 147.146 227.966C147.05 227.918 146.965 227.848 146.9 227.762C146.834 227.676 146.789 227.577 146.768 227.471C146.747 227.365 146.75 227.256 146.777 227.151L148.767 219.611C148.794 219.509 148.845 219.414 148.914 219.335C148.984 219.255 149.071 219.193 149.169 219.152C149.266 219.112 149.372 219.094 149.477 219.101C149.583 219.108 149.685 219.138 149.777 219.191L153.727 221.491C153.824 221.547 153.935 221.574 154.047 221.568C154.159 221.561 154.266 221.522 154.356 221.454C154.446 221.387 154.513 221.295 154.551 221.19C154.588 221.084 154.594 220.97 154.567 220.861L153.317 215.701C153.304 215.642 153.304 215.581 153.316 215.522C153.329 215.463 153.354 215.407 153.39 215.359C153.426 215.311 153.472 215.271 153.525 215.242C153.578 215.213 153.637 215.195 153.697 215.191C153.817 215.178 155.334 215.174 158.247 215.181C161.154 215.194 162.667 215.208 162.787 215.221C162.847 215.225 162.906 215.243 162.959 215.272C163.012 215.301 163.058 215.341 163.094 215.389C163.13 215.437 163.155 215.493 163.168 215.552C163.18 215.611 163.18 215.672 163.167 215.731L161.887 220.881C161.859 220.989 161.864 221.103 161.9 221.209C161.936 221.314 162.003 221.407 162.091 221.475C162.179 221.543 162.286 221.584 162.397 221.592C162.508 221.6 162.62 221.576 162.717 221.521L166.687 219.241C166.779 219.189 166.883 219.158 166.989 219.152C167.095 219.146 167.201 219.164 167.299 219.206C167.396 219.248 167.483 219.311 167.552 219.392C167.621 219.473 167.671 219.568 167.697 219.671L169.647 227.211C169.675 227.317 169.678 227.428 169.655 227.536C169.633 227.643 169.586 227.744 169.518 227.83C169.451 227.916 169.364 227.986 169.265 228.033C169.165 228.08 169.057 228.103 168.947 228.101L164.817 228.081C164.708 228.082 164.602 228.115 164.511 228.175C164.42 228.236 164.349 228.321 164.308 228.421C164.266 228.521 164.255 228.63 164.276 228.735C164.297 228.84 164.35 228.936 164.427 229.011L168.027 232.641C168.078 232.694 168.117 232.756 168.141 232.825C168.166 232.893 168.176 232.966 168.17 233.038C168.164 233.11 168.143 233.18 168.108 233.242C168.073 233.305 168.025 233.359 167.967 233.401L161.617 237.961C161.532 238.022 161.434 238.062 161.33 238.08C161.227 238.098 161.121 238.092 161.02 238.063C160.919 238.034 160.826 237.983 160.748 237.914C160.67 237.844 160.608 237.758 160.567 237.661C159.74 235.608 159.1 234.081 158.647 233.081C158.574 232.928 158.414 232.851 158.167 232.851Z" fill="#131A24"/>
<path d="M188.228 215.171C191.142 215.171 192.658 215.178 192.778 215.191C192.839 215.195 192.897 215.212 192.95 215.241C193.003 215.27 193.049 215.31 193.085 215.359C193.121 215.407 193.146 215.463 193.159 215.522C193.172 215.581 193.171 215.642 193.158 215.701L191.898 220.861C191.871 220.97 191.877 221.084 191.915 221.189C191.952 221.295 192.02 221.387 192.11 221.454C192.199 221.522 192.307 221.561 192.418 221.567C192.53 221.574 192.642 221.547 192.738 221.491L196.698 219.201C196.79 219.148 196.893 219.117 196.998 219.111C197.104 219.104 197.209 219.122 197.307 219.162C197.404 219.203 197.491 219.265 197.561 219.345C197.631 219.424 197.681 219.519 197.708 219.621L199.688 227.161C199.716 227.266 199.719 227.376 199.697 227.483C199.675 227.59 199.629 227.69 199.563 227.776C199.496 227.862 199.41 227.932 199.313 227.979C199.215 228.027 199.107 228.051 198.998 228.051H194.868C194.76 228.052 194.653 228.084 194.562 228.145C194.472 228.206 194.401 228.291 194.359 228.391C194.317 228.491 194.306 228.6 194.328 228.705C194.349 228.81 194.401 228.906 194.478 228.981L198.098 232.601C198.149 232.654 198.188 232.716 198.212 232.785C198.237 232.853 198.247 232.926 198.241 232.998C198.236 233.07 198.215 233.14 198.18 233.202C198.145 233.265 198.096 233.319 198.038 233.361L191.708 237.951C191.623 238.013 191.524 238.056 191.419 238.074C191.315 238.093 191.207 238.088 191.105 238.059C191.003 238.03 190.909 237.978 190.83 237.908C190.751 237.837 190.689 237.749 190.648 237.651C189.815 235.598 189.168 234.074 188.708 233.081C188.635 232.921 188.478 232.841 188.238 232.841C188.018 232.841 187.872 232.921 187.798 233.081C187.345 234.074 186.705 235.601 185.878 237.661C185.838 237.759 185.776 237.847 185.697 237.918C185.618 237.988 185.523 238.04 185.421 238.069C185.319 238.098 185.212 238.103 185.107 238.084C185.003 238.066 184.904 238.023 184.818 237.961L178.478 233.391C178.42 233.35 178.371 233.296 178.335 233.234C178.299 233.172 178.277 233.102 178.27 233.03C178.263 232.958 178.272 232.885 178.296 232.816C178.32 232.747 178.358 232.684 178.408 232.631L182.018 229.001C182.096 228.926 182.148 228.83 182.169 228.725C182.191 228.62 182.18 228.511 182.138 228.411C182.096 228.311 182.025 228.226 181.934 228.165C181.844 228.104 181.737 228.072 181.628 228.071L177.498 228.081C177.39 228.081 177.282 228.057 177.184 228.009C177.086 227.962 177.001 227.892 176.934 227.806C176.867 227.72 176.821 227.62 176.8 227.513C176.778 227.406 176.781 227.296 176.808 227.191L178.768 219.651C178.795 219.548 178.844 219.452 178.913 219.372C178.982 219.291 179.069 219.227 179.167 219.186C179.265 219.144 179.371 219.126 179.477 219.132C179.583 219.138 179.686 219.168 179.778 219.221L183.738 221.501C183.835 221.557 183.946 221.584 184.058 221.577C184.17 221.571 184.278 221.532 184.367 221.464C184.457 221.397 184.525 221.305 184.562 221.199C184.6 221.094 184.605 220.98 184.578 220.871L183.308 215.711C183.295 215.652 183.295 215.591 183.308 215.532C183.32 215.473 183.346 215.417 183.382 215.369C183.418 215.32 183.464 215.28 183.517 215.251C183.57 215.222 183.628 215.205 183.688 215.201C183.808 215.188 185.322 215.178 188.228 215.171Z" fill="#131A24"/>
<path d="M204.619 319.031C204.773 319.031 204.92 319.092 205.029 319.201C205.138 319.31 205.199 319.457 205.199 319.611V349.771C205.199 350.472 205.056 351.167 204.777 351.815C204.499 352.463 204.091 353.051 203.576 353.547C203.062 354.043 202.451 354.436 201.779 354.705C201.107 354.973 200.387 355.111 199.659 355.111H80.5791C79.1098 355.111 77.7006 354.549 76.6617 353.547C75.6227 352.546 75.0391 351.187 75.0391 349.771V319.611C75.0391 319.457 75.1002 319.31 75.2089 319.201C75.3177 319.092 75.4652 319.031 75.6191 319.031H204.619ZM149.499 336.251C149.499 335.047 149.262 333.855 148.801 332.742C148.34 331.629 147.665 330.619 146.813 329.767C145.962 328.916 144.951 328.24 143.838 327.779C142.726 327.318 141.533 327.081 140.329 327.081C139.125 327.081 137.932 327.318 136.82 327.779C135.707 328.24 134.696 328.916 133.845 329.767C132.993 330.619 132.318 331.629 131.857 332.742C131.396 333.855 131.159 335.047 131.159 336.251C131.159 337.455 131.396 338.648 131.857 339.76C132.318 340.873 132.993 341.884 133.845 342.735C134.696 343.587 135.707 344.262 136.82 344.723C137.932 345.184 139.125 345.421 140.329 345.421C141.533 345.421 142.726 345.184 143.838 344.723C144.951 344.262 145.962 343.587 146.813 342.735C147.665 341.884 148.34 340.873 148.801 339.76C149.262 338.648 149.499 337.455 149.499 336.251Z" fill="#C0ECEF"/>
<path d="M140.33 345.421C145.395 345.421 149.5 341.316 149.5 336.251C149.5 331.187 145.395 327.081 140.33 327.081C135.266 327.081 131.16 331.187 131.16 336.251C131.16 341.316 135.266 345.421 140.33 345.421Z" fill="#131A24"/>
</svg>
